<?xml version="1.0" encoding="UTF-8"?>
<svg enable-background="new 0 0 612 792" version="1.1" viewBox="0 0 612 792" xml:space="preserve" xmlns="http://www.w3.org/2000/svg">
                            <style type="text/css">
                                .st0 {
                                    fill: #41B783;
                                }
                                .st1 {
                                    fill: #6FC59A;
                                }
                                .st2 {
                                    fill: #94D1B4;
                                }
                                .st3 {
                                    fill: #48AF9B;
                                }
                                .st4 {
                                    fill: #37495D;
                                }
                            </style>
                            <rect class="st0" x="31.4" y="427.3" width="156" height="159.2"/>
                            <rect class="st1" x="187.4" y="427.3" width="156" height="159.2"/>
                            <rect class="st1" x="31.4" y="268.1" width="156" height="159.2"/>
                            <rect class="st2" x="187.4" y="268.1" width="156" height="159.2"/>
                            <rect class="st2" x="343.4" y="427.3" width="156" height="159.2"/>
                            <rect class="st2" x="31.4" y="109" width="156" height="159.2"/>
                            <rect class="st3" x="397.9" y="236.4" width="156" height="159.2"/>
                            <rect class="st3" x="226.3" y="61.3" width="156" height="159.2"/>
                            <rect class="st4" x="421.2" y="37.5" width="156" height="159.2"/>
                                    <path class="st4" d="m118.9 738.1h-6.1c-0.5-1.2-0.8-6.9-0.9-17.4-3.4 7.5-10.8 18.7-30.5 18.7-27.1 0-41-23.8-41-54.8 0-32.6 14.8-57 42.5-57 20.4 0 33.9 12.3 36.8 32.4h-7.3c-4-15.4-13.4-24.6-29.8-24.6-23.6 0-34.4 21.2-34.4 48.8 0 24.9 10.4 47.5 33.5 47.5 23.6 0 30.2-17.8 30.2-41.9v-1.2h-30.5v-7.8h37.5v57.3z"/>
                                    <path class="st4" d="m142.3 629h7.3v56.7c7.6-8.4 34.5-37.7 51.4-56.7h9.7l-42.4 46.4 44.8 62.6h-9l-41-57.2-13.5 13.7v43.5h-7.3v-109z"/>
                                    <path class="st4" d="m248.6 694.4v7.6h-34v-7.6h34z"/>
                                    <path class="st4" d="m341.1 708.9c-4.5 17.3-15.5 30.4-35.5 30.4-27.1 0-41.4-24.9-41.4-55.6 0-29.4 14-56.2 41.5-56.2 20.4 0 32.4 13.1 35.5 31.3h-7.2c-4.3-14.2-12.3-23.5-28.6-23.5-23.5 0-33.3 24.8-33.3 48.3 0 23.4 9.7 48 33.9 48 15.4 0 23.2-9.2 27.9-22.6h7.2z"/>
                                    <path class="st4" d="m364.7 623.2v50c3.8-8.1 10.4-15 22.3-15 9.6 0 22.8 5.6 22.8 30.2v49.5h-6.8v-48c0-15.4-6.1-24.1-17.3-24.1-13.4 0-21 9.5-21 28.7v43.5h-6.7v-114.8h6.7z"/>
                                    <path class="st4" d="m478.2 723.3c0 6.9 0.5 12.3 0.9 14.8h-6.5c-0.5-1.9-0.9-5.3-1.2-12-2.3 5.8-8.2 13.9-22.1 13.9-15.6 0-22.4-11.7-22.4-23.4 0-17.1 11.5-24.9 31.7-24.9h12.8v-7.9c0-7.8-2-18.2-17.4-18.2-13.6 0-15.6 8.3-17.1 14.6h-6.7c0.8-8.6 5.4-21.8 24-21.8 15.4 0 24 7.5 24 24.6v40.3zm-6.7-25h-13.2c-15 0-24.3 4.5-24.3 17.9 0 9.8 6.1 16.5 15.5 16.5 19.3 0 22-14.8 22-31.6v-2.8z"/>
                                    <path class="st4" d="m500.4 681.4c0-13.1-0.1-18.7-0.1-21.2h6.6c0.1 2.5 0.3 7.5 0.3 17.4 3.9-11.7 12.5-18.7 23.5-19.3v8.4c-14 1.1-23.5 12.3-23.5 30.8v40.5h-6.7v-56.6z"/>
                                    <path class="st4" d="m534 660.2h12.5v-24.3h6.7v24.3h16.1v7.3h-16.1v50.6c0 8.7 1.6 13.7 8.1 13.7 2 0 4.9-0.2 7-0.9v6.9c-2.3 1.1-5.5 1.4-8.4 1.4-8.6 0-13.5-5-13.5-17.4v-54.2h-12.4v-7.4z"/>
                        </svg>
