<svg xmlns="http://www.w3.org/2000/svg" viewBox="0 0 612 792"><path d="M31.4 427.3h156v159.2h-156z" fill="#41b783"/><path d="M187.4 427.3h156v159.2h-156zM31.4 268h156v159.2h-156z" fill="#6fc59a"/><path d="M187.4 268h156v159.2h-156zm156 159.2h156v159.2h-156zM31.4 109h156v159.2h-156z" fill="#94d1b4"/><path d="M398 236.4h156v159.2H398zm-171.6-175h156v159.2h-156z" fill="#48af9b"/><path d="M421.2 37.5h156v159.2h-156zM119 738h-6c-.5-1.2-.8-7-1-17.4-3.4 7.5-10.8 18.7-30.5 18.7-27 0-41-23.8-41-54.8 0-32.6 14.8-57 42.5-57 20.4 0 34 12.3 36.8 32.4h-7.3c-4-15.4-13.4-24.6-29.8-24.6-23.6 0-34.4 21.2-34.4 48.8 0 25 10.4 47.5 33.5 47.5 23.6 0 30.2-17.8 30.2-42v-1.2H81.4v-7.8H119V738zm23.4-109h7.3v56.7L201 629h9.7l-42.4 46.4L213 738h-9l-41-57.2-13.5 13.7V738h-7.3V629zm106.3 65.4v7.6h-34v-7.6h34zM341 709c-4.5 17.3-15.5 30.4-35.5 30.4-27 0-41.4-25-41.4-55.6 0-29.4 14-56.2 41.5-56.2 20.4 0 32.4 13 35.5 31.3H334c-4.3-14.2-12.3-23.5-28.6-23.5-23.5 0-33.3 24.8-33.3 48.3 0 23.4 9.7 48 34 48 15.4 0 23.2-9.2 28-22.6h7.2zm23.6-85.7v50c3.8-8 10.4-15 22.3-15 9.6 0 22.8 5.6 22.8 30.2V738H403v-48c0-15.4-6-24-17.3-24-13.4 0-21 9.5-21 28.7V738H358V623.2h6.7zm113.5 100c0 7 .5 12.3 1 14.8h-6.5c-.5-2-1-5.3-1.2-12-2.3 5.8-8.2 14-22 14-15.6 0-22.4-11.7-22.4-23.4 0-17 11.5-25 31.7-25h12.8v-8c0-7.8-2-18.2-17.4-18.2-13.6 0-15.6 8.3-17 14.6h-6.7c.8-8.6 5.4-21.8 24-21.8 15.4 0 24 7.5 24 24.6v40.3zm-6.7-25h-13.2c-15 0-24.3 4.5-24.3 18 0 9.8 6 16.5 15.5 16.5 19.3 0 22-14.8 22-31.6v-2.8zm29-17l-.1-21.2h6.6c.1 2.5.3 7.5.3 17.4 4-11.7 12.5-18.7 23.5-19.3v8.4c-14 1-23.5 12.3-23.5 30.8V738h-6.7v-56.6zm33.6-21.2h12.5V636h6.7v24.3h16v7.3h-16V718c0 8.7 1.6 13.7 8 13.7 2 0 5-.2 7-1v7c-2.3 1-5.5 1.4-8.4 1.4-8.6 0-13.5-5-13.5-17.4v-54.2H534v-7.4z" fill="#37495d"/></svg>